<?xml version="1.0" standalone="no"?>
<!DOCTYPE svg PUBLIC "-//W3C//DTD SVG 20010904//EN"
 "http://www.w3.org/TR/2001/REC-SVG-20010904/DTD/svg10.dtd">
<svg version="1.0" xmlns="http://www.w3.org/2000/svg"
 width="3000.000000pt" height="2250.000000pt" viewBox="0 0 3000.000000 2250.000000"
 preserveAspectRatio="xMidYMid meet">

<g transform="translate(0.000000,2250.000000) scale(0.100000,-0.100000)"
fill="#ffffff" stroke="none">
<path d="M14793 17593 c-4 -10 -645 -1561 -1424 -3448 -780 -1886 -1417 -3430
-1416 -3431 1 -1 153 -4 338 -8 l336 -7 1039 2525 1039 2526 16 -33 c9 -17
171 -404 359 -858 l343 -827 184 124 c206 139 468 297 663 400 80 43 129 75
129 84 0 8 -283 679 -627 1490 l-627 1475 -173 3 c-157 2 -173 1 -179 -15z"/>
<path d="M16905 14595 c-465 -213 -744 -365 -1100 -600 -463 -306 -838 -617
-1250 -1036 -424 -432 -786 -899 -1083 -1396 -100 -168 -176 -303 -169 -303 3
0 74 87 160 193 621 771 1289 1453 1903 1943 160 127 275 213 244 182 -8 -9
-71 -64 -140 -124 -403 -349 -895 -841 -1267 -1265 -353 -404 -904 -1091
-1132 -1411 -31 -43 -36 -78 -12 -78 12 0 86 81 246 273 72 86 136 156 144
156 7 1 53 -13 103 -29 294 -99 662 -117 973 -49 200 44 383 120 540 224 84
56 195 150 195 166 0 5 -102 9 -242 10 l-243 1 118 24 c116 24 269 75 357 119
166 84 358 248 465 395 57 80 135 222 135 247 0 9 -39 13 -151 15 l-150 3 340
454 c188 250 339 456 338 458 -2 2 -74 -13 -160 -32 -86 -19 -160 -35 -164
-35 -4 0 39 24 97 53 542 273 902 795 965 1405 4 34 3 62 -2 61 -4 0 -30 -11
-58 -24z"/>
<path d="M16786 13488 c-159 -195 -734 -972 -729 -984 4 -10 27 -14 83 -14
l79 0 -39 -95 -38 -94 328 -792 c181 -435 330 -793 333 -795 2 -2 287 -3 634
-2 l631 3 -439 1035 c-507 1194 -771 1814 -774 1818 -1 1 -33 -35 -69 -80z"/>
<path d="M7976 9462 c-3 -5 -102 -244 -222 -533 -119 -288 -308 -747 -421
-1019 -113 -272 -207 -501 -210 -508 -4 -10 15 -12 87 -10 l93 3 114 295 c63
162 127 327 141 365 l28 70 341 3 341 2 64 -152 c36 -84 105 -251 154 -370
l89 -218 192 0 c106 0 193 3 193 8 0 4 -197 472 -437 1039 l-438 1033 -52 0
c-28 0 -54 -4 -57 -8z m87 -829 c75 -181 139 -336 143 -345 6 -17 -12 -18
-280 -18 -157 0 -286 2 -286 4 0 2 54 138 121 303 66 164 128 317 137 341 9
23 19 42 23 42 3 0 67 -147 142 -327z"/>
<path d="M9940 8431 l0 -1041 180 0 180 0 0 475 0 475 50 0 c262 0 508 -218
705 -625 29 -61 70 -159 90 -218 l37 -107 155 0 c137 0 154 2 149 16 -73 189
-234 517 -319 647 -60 93 -197 242 -278 304 -27 20 -49 40 -49 43 0 3 26 13
58 23 142 45 301 176 360 297 63 128 66 292 7 419 -28 61 -118 158 -184 200
-62 40 -165 79 -276 103 -79 18 -137 21 -477 25 l-388 5 0 -1041z m691 865
c111 -20 161 -45 203 -103 53 -72 78 -158 78 -278 2 -219 -78 -340 -266 -402
-66 -21 -106 -27 -213 -31 l-133 -4 0 416 0 416 128 0 c70 -1 161 -7 203 -14z"/>
<path d="M12010 9423 c0 -27 -3 -58 -6 -70 l-6 -23 421 0 421 0 0 -970 0 -970
180 0 180 0 0 970 0 970 420 0 421 0 -3 68 -3 67 -1012 3 -1013 2 0 -47z"/>
<path d="M14980 8430 l0 -1040 180 0 180 0 0 1040 0 1040 -180 0 -180 0 0
-1040z"/>
<path d="M16838 9460 c-175 -31 -311 -131 -383 -281 -101 -210 -55 -463 115
-630 75 -74 184 -148 379 -259 239 -136 354 -239 382 -343 40 -147 -44 -317
-190 -386 -50 -23 -67 -26 -161 -25 -82 0 -118 6 -165 23 -115 42 -214 124
-313 259 -25 34 -49 62 -53 62 -8 0 -99 -97 -99 -105 0 -19 70 -102 139 -167
183 -169 411 -249 626 -219 243 34 401 158 483 380 33 89 42 258 18 349 -51
201 -129 280 -479 491 -219 132 -280 173 -351 240 -83 79 -101 118 -101 216 0
69 4 86 27 127 59 99 133 133 270 126 137 -7 246 -70 330 -188 l41 -59 59 46
c32 25 58 48 58 51 0 3 -26 36 -57 75 -94 114 -184 171 -318 202 -81 19 -199
26 -257 15z"/>
<path d="M19202 9228 c-55 -134 -247 -598 -427 -1032 -179 -435 -328 -793
-331 -798 -3 -4 37 -8 88 -8 l93 0 84 218 c46 119 111 286 143 370 l59 152
340 0 340 0 21 -47 c12 -27 81 -192 153 -368 l132 -320 197 -3 196 -2 -9 22
c-12 30 -845 1995 -862 2031 -11 24 -17 27 -64 27 l-53 0 -100 -242z m192
-611 c75 -180 136 -332 136 -337 0 -6 -102 -10 -284 -10 l-284 0 52 133 c152
383 230 567 237 555 4 -7 68 -160 143 -341z"/>
<path d="M21300 8455 l0 -1015 70 0 70 0 0 858 1 857 29 -35 c16 -19 318 -416
672 -882 l643 -847 58 0 57 -1 0 1040 0 1040 -80 0 -80 0 -2 -719 -3 -720
-538 720 -539 719 -179 0 -179 0 0 -1015z"/>
<path d="M12943 6988 c-6 -7 -34 -101 -62 -208 -29 -107 -56 -206 -60 -220 -7
-22 -18 -27 -100 -43 -51 -10 -95 -17 -97 -14 -2 2 25 65 62 140 36 75 67 151
68 169 1 29 -2 33 -24 33 -20 0 -32 -14 -71 -85 -26 -47 -67 -129 -91 -182
-23 -54 -50 -100 -58 -102 -8 -3 -107 -21 -220 -42 -113 -20 -208 -38 -212
-41 -14 -8 -8 -44 8 -50 9 -3 89 7 178 22 88 16 176 30 193 33 l33 4 -41 -98
c-136 -336 -299 -968 -299 -1162 0 -143 32 -174 103 -100 46 48 145 227 258
470 66 140 76 157 95 152 19 -5 29 8 74 93 65 122 161 271 195 303 23 22 27
23 41 8 13 -12 18 -47 23 -150 8 -140 20 -180 63 -207 56 -35 172 -1 308 90
48 32 91 59 94 59 3 0 6 -6 6 -13 0 -15 45 -59 77 -76 36 -18 127 -13 196 12
94 34 267 156 267 188 0 27 -35 17 -92 -26 -93 -70 -218 -128 -289 -133 -54
-4 -60 -2 -89 26 -16 17 -30 39 -30 49 0 23 32 60 88 103 23 17 49 45 57 60
13 26 13 30 -2 45 -24 25 -88 14 -125 -22 -33 -30 -67 -95 -68 -128 -1 -26
-114 -115 -204 -160 -108 -55 -185 -44 -200 27 -3 13 -7 79 -8 148 -3 100 -7
130 -21 151 -34 50 -72 44 -137 -23 -23 -24 -58 -69 -77 -101 -39 -62 -48 -68
-33 -21 5 16 37 137 71 270 l61 241 322 69 c289 63 321 72 324 90 7 45 -13 44
-321 -23 -164 -36 -300 -63 -302 -61 -3 2 21 97 51 211 31 114 53 214 50 222
-7 18 -20 19 -33 3z m-148 -540 c-3 -7 -29 -105 -59 -218 -48 -180 -65 -227
-141 -390 -48 -102 -120 -256 -161 -343 -72 -154 -205 -402 -226 -422 -8 -7
-9 -4 -3 10 4 11 11 56 16 100 38 330 160 782 306 1128 34 81 50 108 66 112
149 35 209 42 202 23z m735 -402 c0 -2 -12 -12 -27 -21 l-28 -18 19 21 c17 20
36 29 36 18z"/>
<path d="M15355 6982 c-186 -64 -416 -355 -648 -819 -118 -233 -283 -679 -306
-822 -31 -191 92 -296 272 -233 58 21 191 100 314 189 120 86 523 424 639 536
56 53 104 97 108 97 4 0 32 -19 63 -41 53 -39 55 -43 50 -78 -3 -20 -35 -93
-71 -163 -55 -107 -63 -129 -52 -143 9 -13 19 -15 36 -10 33 11 239 213 307
302 50 66 59 73 91 73 26 0 43 9 72 38 l37 37 49 -25 c69 -35 174 -39 280 -10
43 11 83 25 89 30 8 6 25 -5 52 -33 59 -62 73 -87 73 -133 0 -76 -64 -127
-162 -128 -65 -1 -104 20 -128 72 -17 35 -31 44 -51 32 -11 -8 -11 -15 0 -47
35 -99 125 -135 245 -99 26 8 63 26 82 41 l35 27 21 -27 c64 -81 235 -68 328
25 72 72 62 149 -30 246 -28 29 -50 58 -50 64 0 7 12 26 27 44 52 61 70 139
34 151 -44 14 -95 -31 -119 -104 -21 -62 -15 -94 24 -132 97 -93 125 -180 74
-234 -49 -52 -115 -72 -180 -55 -64 17 -90 49 -90 109 0 68 -11 91 -75 161
l-55 60 35 45 c19 25 39 65 46 87 9 37 9 44 -7 55 -24 18 -37 16 -68 -8 -32
-25 -65 -86 -68 -128 -2 -29 -7 -32 -78 -56 -118 -39 -211 -32 -277 22 -22 17
-22 20 -8 67 17 57 19 129 5 157 -13 24 -61 25 -83 1 -8 -9 -20 -29 -26 -45
-7 -17 -18 -27 -30 -27 -51 0 -119 -124 -105 -195 4 -26 -2 -41 -39 -91 -24
-32 -69 -86 -100 -119 l-56 -60 19 57 c32 94 23 147 -31 176 -57 31 -95 68
-83 83 17 23 11 121 -10 152 -22 32 -51 35 -66 7 -10 -19 -14 -123 -8 -176 7
-52 -784 -638 -1021 -757 -153 -77 -209 -32 -176 142 44 228 274 774 453 1076
169 284 363 475 481 475 41 0 93 -28 116 -63 59 -90 1 -335 -108 -462 -31 -35
-40 -40 -78 -40 -37 0 -44 -3 -47 -21 -2 -11 4 -26 12 -33 66 -55 236 157 281
349 58 249 -61 401 -260 332z m860 -949 c5 -25 2 -36 -16 -54 -22 -22 -22 -22
-36 -3 -18 24 -10 84 14 102 20 14 27 6 38 -45z"/>
<path d="M10634 6286 c-10 -26 4 -48 28 -44 17 2 23 10 23 28 0 18 -6 26 -23
28 -13 2 -25 -3 -28 -12z"/>
<path d="M17452 6288 c-17 -17 -15 -36 6 -47 25 -13 44 1 40 30 -3 27 -27 36
-46 17z"/>
<path d="M19240 6166 c-33 -18 -69 -83 -76 -139 -6 -43 -5 -46 51 -107 108
-117 112 -200 12 -252 -86 -45 -185 -22 -225 51 -10 20 -25 35 -31 33 -10 -2
-11 17 -4 85 4 48 8 132 8 185 0 86 -2 100 -21 119 -27 26 -49 17 -85 -35 -13
-20 -37 -41 -52 -47 -16 -7 -60 -47 -99 -90 -112 -123 -232 -198 -316 -199
-93 0 -133 51 -157 204 -23 142 -49 196 -94 196 -24 0 -98 -80 -154 -165 l-59
-90 7 45 c4 25 19 76 33 113 18 49 22 71 14 79 -21 21 -40 -2 -66 -80 -26 -78
-30 -83 -140 -190 -133 -128 -207 -172 -293 -172 -113 0 -128 84 -59 315 25
84 24 100 -2 110 -24 9 -37 -13 -67 -115 -36 -126 -43 -252 -18 -299 30 -58
65 -76 141 -76 107 1 195 49 330 179 l62 61 -6 -46 c-5 -33 -2 -48 9 -57 12
-10 20 -6 45 22 17 19 47 65 68 103 55 101 114 191 128 196 33 13 59 -40 84
-171 29 -155 79 -214 181 -214 54 0 115 22 187 68 l52 32 6 -29 c7 -38 31 -38
82 0 37 27 70 72 135 189 23 41 35 52 55 52 l25 0 -7 -82 -7 -82 -77 -101
c-176 -231 -244 -400 -244 -605 0 -117 23 -192 62 -205 30 -9 78 19 107 63 33
51 90 202 120 319 20 82 65 324 65 358 0 6 10 -8 23 -29 33 -58 77 -78 157
-73 113 7 211 73 226 153 10 56 -11 108 -72 174 l-56 60 24 33 c57 73 76 148
42 161 -21 8 -25 7 -54 -8z m-349 -518 c-19 -140 -56 -315 -85 -401 -40 -120
-103 -237 -127 -237 -16 0 -29 68 -29 155 0 117 26 222 85 340 47 94 153 251
162 241 3 -3 0 -47 -6 -98z"/>
<path d="M11299 6147 c-28 -18 -96 -110 -166 -223 -19 -31 -6 36 27 133 24 72
26 84 13 95 -20 17 -36 -6 -64 -91 -20 -59 -32 -75 -128 -171 -135 -133 -200
-173 -291 -178 -63 -4 -68 -3 -88 23 -30 38 -29 107 4 231 37 137 39 160 20
167 -33 13 -44 -6 -76 -126 -55 -205 -42 -309 42 -347 109 -49 238 0 404 154
l69 63 -3 -48 c-4 -44 -2 -49 17 -49 25 0 54 38 126 167 31 57 70 117 87 135
l30 32 23 -26 c14 -17 28 -56 40 -114 29 -148 35 -164 71 -203 86 -96 220 -64
426 100 61 47 86 73 82 84 -11 27 -34 16 -117 -50 -106 -85 -204 -135 -266
-135 -87 0 -123 50 -150 207 -21 119 -31 152 -56 176 -22 22 -36 21 -76 -6z"/>
</g>
</svg>
