<?xml version="1.0" standalone="no"?>
<!DOCTYPE svg PUBLIC "-//W3C//DTD SVG 20010904//EN"
 "http://www.w3.org/TR/2001/REC-SVG-20010904/DTD/svg10.dtd">
<svg version="1.0" xmlns="http://www.w3.org/2000/svg"
 width="1300.000000pt" height="1300.000000pt" viewBox="0 0 1300.000000 1300.000000"
 preserveAspectRatio="xMidYMid meet">

<g transform="translate(0.000000,1300.000000) scale(0.100000,-0.100000)"
fill="#9fb4ed" stroke="none">
<path d="M7333 11259 c3 -24 11 -103 18 -176 8 -84 16 -130 22 -126 6 3 7 1 4
-4 -4 -6 -8 -131 -11 -279 -4 -296 -16 -399 -67 -598 -38 -145 -91 -290 -165
-445 -42 -89 -51 -117 -43 -128 9 -10 9 -12 -3 -8 -27 11 -203 -383 -284 -635
-70 -217 -151 -676 -155 -878 l-2 -57 -14 80 c-8 44 -28 154 -44 245 -37 203
-90 411 -139 550 -67 186 -59 183 -86 40 -88 -480 -206 -834 -374 -1125 -51
-88 -87 -141 -287 -420 -212 -296 -294 -515 -337 -895 -17 -156 -25 -297 -26
-460 l-1 -115 -39 188 c-55 266 -106 441 -181 632 l-24 60 -2 -55 c-16 -366
-62 -548 -262 -1022 -187 -445 -222 -732 -136 -1133 37 -175 146 -478 236
-657 16 -32 29 -62 29 -67 0 -12 -88 17 -160 54 -127 64 -249 168 -318 273
-19 28 -36 52 -38 52 -3 0 9 -41 30 -99 54 -148 203 -326 358 -428 21 -14 38
-28 38 -31 0 -12 -158 11 -238 34 -97 28 -171 67 -238 125 -25 22 -47 39 -50
39 -2 0 2 -12 10 -27 26 -49 110 -146 161 -186 59 -46 184 -105 275 -132 36
-10 67 -20 69 -22 7 -5 -33 -44 -77 -75 -63 -43 -170 -76 -274 -84 -103 -8
-99 -14 23 -44 119 -28 234 -27 344 5 48 14 101 33 117 41 l31 16 -7 -68 c-41
-408 -62 -852 -52 -1135 5 -165 8 -195 30 -255 31 -85 83 -139 124 -130 87 21
109 148 83 471 -15 179 -20 736 -7 817 l7 47 67 -43 c57 -37 133 -76 149 -76
3 0 -20 28 -51 62 -72 79 -106 147 -106 211 l0 48 31 -22 c55 -39 145 -61 274
-66 66 -3 118 -3 115 0 -3 2 -53 15 -112 27 -78 16 -124 32 -168 58 -33 20
-60 39 -60 43 0 3 19 9 43 11 39 5 137 54 137 70 0 3 -25 -2 -55 -13 -55 -19
-134 -24 -170 -10 -15 6 4 16 80 41 130 43 342 144 441 210 154 102 249 188
424 380 206 226 284 291 423 349 40 16 103 35 141 42 l68 13 -38 13 c-114 40
-308 35 -499 -11 -55 -13 -101 -23 -103 -21 -2 1 38 30 89 65 391 263 677 524
866 788 66 92 174 271 216 356 25 51 142 248 184 311 155 227 393 447 736 679
l138 94 -108 7 c-332 21 -603 -61 -858 -260 l-94 -74 60 87 c124 177 349 522
444 682 54 91 108 181 120 200 42 67 163 296 230 435 104 217 177 394 243 590
244 721 237 1318 -22 1867 -196 415 -587 802 -1135 1123 -12 7 -13 0 -8 -36z
m562 -1335 c-48 -412 -137 -748 -332 -1244 -25 -63 -53 -133 -63 -155 -10 -22
-32 -74 -50 -115 -160 -371 -400 -841 -830 -1630 -64 -118 -138 -253 -163
-300 -25 -47 -72 -134 -105 -195 -256 -470 -560 -1084 -712 -1439 -274 -641
-395 -1070 -466 -1657 -25 -209 -31 -769 -10 -1034 21 -261 8 -386 -41 -413
-26 -15 -50 2 -77 56 -46 90 -50 143 -43 566 4 215 11 450 17 521 45 567 153
1027 387 1655 222 594 553 1267 1138 2315 71 127 172 309 225 405 88 160 133
243 257 475 84 158 292 572 343 685 28 63 62 138 75 165 29 63 46 104 100 235
157 384 271 762 329 1090 14 79 26 149 26 154 0 5 2 7 5 4 3 -3 -1 -68 -10
-144z m-724 -501 c13 -16 12 -17 -3 -4 -10 7 -18 15 -18 17 0 8 8 3 21 -13z
m80 -80 c13 -16 12 -17 -3 -4 -10 7 -18 15 -18 17 0 8 8 3 21 -13z m80 -80
c13 -16 12 -17 -3 -4 -10 7 -18 15 -18 17 0 8 8 3 21 -13z m80 -80 c13 -16 12
-17 -3 -4 -10 7 -18 15 -18 17 0 8 8 3 21 -13z m-888 -2666 c4 3 7 4 7 1 0 -3
-8 -12 -17 -19 -10 -7 -15 -9 -11 -5 4 5 2 16 -5 25 -10 14 -10 14 4 4 9 -7
19 -10 22 -6z"/>
</g>
</svg>
