<?xml version="1.0" standalone="no"?>
<!DOCTYPE svg PUBLIC "-//W3C//DTD SVG 20010904//EN"
 "http://www.w3.org/TR/2001/REC-SVG-20010904/DTD/svg10.dtd">
<svg version="1.0" xmlns="http://www.w3.org/2000/svg"
 width="623.000000pt" height="690.000000pt" viewBox="0 0 623.000000 690.000000"
 preserveAspectRatio="xMidYMid meet">

<g transform="translate(0.000000,690.000000) scale(0.100000,-0.100000)"
fill="#9fb4ed" stroke="none">
<path d="M1483 3458 c-782 -1893 -1421 -3443 -1420 -3444 1 -1 153 -4 338 -8
l336 -7 1039 2525 1039 2526 16 -33 c9 -17 171 -404 359 -858 l343 -827 184
124 c206 139 468 297 663 400 71 38 130 74 130 79 0 6 -282 675 -626 1488
l-627 1477 -176 0 -176 -1 -1422 -3441z"/>
<path d="M5015 3895 c-465 -213 -744 -365 -1100 -600 -463 -306 -838 -617
-1250 -1036 -424 -432 -786 -899 -1083 -1396 -100 -168 -176 -303 -169 -303 3
0 74 87 160 193 621 771 1289 1453 1903 1943 160 127 275 213 244 182 -8 -9
-71 -64 -140 -124 -403 -349 -895 -841 -1267 -1265 -353 -404 -904 -1091
-1132 -1411 -31 -43 -36 -78 -12 -78 12 0 86 81 246 273 72 86 136 156 144
156 7 1 53 -13 103 -29 294 -99 662 -117 973 -49 200 44 383 120 540 224 84
56 195 150 195 166 0 5 -102 9 -242 10 l-243 1 118 24 c116 24 269 75 357 119
166 84 358 248 465 395 57 80 135 222 135 247 0 9 -39 13 -151 15 l-150 3 340
454 c188 250 339 456 338 458 -2 2 -74 -13 -160 -32 -86 -19 -160 -35 -164
-35 -4 0 39 24 97 53 542 273 902 795 965 1405 4 34 3 62 -2 61 -4 0 -30 -11
-58 -24z"/>
<path d="M4896 2788 c-159 -195 -734 -972 -729 -984 4 -10 27 -14 83 -14 l79
0 -39 -95 -38 -94 328 -792 c181 -435 330 -793 333 -795 2 -2 287 -3 634 -2
l631 3 -439 1035 c-507 1194 -771 1814 -774 1818 -1 1 -33 -35 -69 -80z"/>
</g>
</svg>
